<svg width="190" height="48" viewBox="0 0 190 48" fill="none" xmlns="http://www.w3.org/2000/svg">
<g clip-path="url(#clip0_4_5)">
<path d="M10.08 30.2016C10.08 32.9782 7.83581 35.2228 5.05883 35.2228C4.39928 35.2234 3.74608 35.0939 3.13662 34.8418C2.52716 34.5897 1.9734 34.2199 1.50705 33.7535C1.04069 33.2871 0.670894 32.7333 0.418821 32.1238C0.166748 31.5143 0.0373476 30.8611 0.0380276 30.2016C0.0380276 27.425 2.28221 25.1808 5.05883 25.1808H10.08V30.2016ZM12.5904 30.2016C12.5904 27.425 14.8346 25.1808 17.6112 25.1808C20.3878 25.1808 22.6324 27.425 22.6324 30.2016V42.754C22.6324 45.5306 20.3882 47.7751 17.6112 47.7751C16.9517 47.7757 16.2985 47.6462 15.6891 47.3941C15.0797 47.1419 14.526 46.7721 14.0597 46.3057C13.5933 45.8393 13.2236 45.2856 12.9715 44.6761C12.7195 44.0667 12.5901 43.4135 12.5908 42.754V30.2016H12.5904Z" fill="#E01E5A"/>
<path d="M17.6112 10.042C16.9517 10.0426 16.2985 9.91307 15.6891 9.66093C15.0797 9.40879 14.526 9.03894 14.0597 8.57256C13.5933 8.10617 13.2236 7.55241 12.9715 6.94295C12.7195 6.3335 12.5901 5.68032 12.5908 5.0208C12.5904 2.24418 14.8346 0 17.6112 0C20.3878 0 22.6324 2.24418 22.6324 5.0208V10.042H17.6112V10.042ZM17.6112 12.5904C20.3878 12.5904 22.6324 14.8346 22.6324 17.6112C22.6324 20.3878 20.3882 22.6324 17.6112 22.6324H5.0208C4.36125 22.633 3.70805 22.5036 3.09859 22.2514C2.48913 21.9993 1.93538 21.6295 1.46902 21.1631C1.00267 20.6967 0.63287 20.1429 0.380796 19.5334C0.128723 18.924 -0.000677334 18.2707 2.66619e-06 17.6112C2.66619e-06 14.8346 2.24419 12.5908 5.0208 12.5908H17.6116L17.6112 12.5904Z" fill="#36C5F0"/>
<path d="M37.7332 17.6112C37.7332 14.8346 39.9774 12.5904 42.754 12.5904C45.5306 12.5904 47.7751 14.8346 47.7751 17.6112C47.7751 20.3878 45.531 22.6324 42.754 22.6324H37.7332V17.6112V17.6112ZM35.2224 17.6112C35.2224 20.3878 32.9786 22.6324 30.2016 22.6324C29.5421 22.633 28.8889 22.5036 28.2794 22.2514C27.6699 21.9993 27.1162 21.6295 26.6498 21.1631C26.1835 20.6967 25.8137 20.1429 25.5616 19.5334C25.3095 18.924 25.1801 18.2707 25.1808 17.6112V5.0208C25.1808 2.24418 27.425 0 30.2016 0C32.9782 0 35.2228 2.24418 35.2228 5.0208V17.6116L35.2224 17.6112Z" fill="#2EB67D"/>
<path d="M30.2016 37.7332C32.9782 37.7332 35.2228 39.9773 35.2228 42.754C35.2228 45.5306 32.9786 47.7751 30.2016 47.7751C29.5421 47.7758 28.8889 47.6463 28.2794 47.3942C27.6699 47.1421 27.1162 46.7722 26.6498 46.3059C26.1835 45.8395 25.8137 45.2857 25.5616 44.6762C25.3095 44.0667 25.1801 43.4135 25.1808 42.754V37.7332H30.2016V37.7332ZM30.2016 35.2224C29.5421 35.223 28.8889 35.0936 28.2795 34.8415C27.67 34.5894 27.1163 34.2196 26.65 33.7532C26.1836 33.2869 25.8138 32.7332 25.5617 32.1237C25.3096 31.5143 25.1802 30.8611 25.1808 30.2016C25.1808 27.425 27.425 25.1808 30.2016 25.1808H42.7924C45.569 25.1808 47.8132 27.425 47.8132 30.2016C47.8132 32.9782 45.569 35.2228 42.792 35.2228H30.2016V35.2224Z" fill="#ECB22E"/>
<path d="M81.912 8.304V14.88H68.184V21.984H78.456V28.368H68.184V42H59.976V8.304H81.912ZM94.434 6.48V42H86.226V6.48H94.434ZM98.7503 28.56C98.7503 25.808 99.2623 23.392 100.286 21.312C101.342 19.232 102.766 17.632 104.558 16.512C106.35 15.392 108.35 14.832 110.558 14.832C112.446 14.832 114.094 15.216 115.502 15.984C116.942 16.752 118.046 17.76 118.814 19.008V15.216H127.022V42H118.814V38.208C118.014 39.456 116.894 40.464 115.454 41.232C114.046 42 112.398 42.384 110.51 42.384C108.334 42.384 106.35 41.824 104.558 40.704C102.766 39.552 101.342 37.936 100.286 35.856C99.2623 33.744 98.7503 31.312 98.7503 28.56ZM118.814 28.608C118.814 26.56 118.238 24.944 117.086 23.76C115.966 22.576 114.59 21.984 112.958 21.984C111.326 21.984 109.934 22.576 108.782 23.76C107.662 24.912 107.102 26.512 107.102 28.56C107.102 30.608 107.662 32.24 108.782 33.456C109.934 34.64 111.326 35.232 112.958 35.232C114.59 35.232 115.966 34.64 117.086 33.456C118.238 32.272 118.814 30.656 118.814 28.608ZM131.328 28.608C131.328 25.824 131.888 23.392 133.008 21.312C134.16 19.232 135.744 17.632 137.76 16.512C139.808 15.392 142.144 14.832 144.768 14.832C148.128 14.832 150.928 15.712 153.168 17.472C155.44 19.232 156.928 21.712 157.632 24.912H148.896C148.16 22.864 146.736 21.84 144.624 21.84C143.12 21.84 141.92 22.432 141.024 23.616C140.128 24.768 139.68 26.432 139.68 28.608C139.68 30.784 140.128 32.464 141.024 33.648C141.92 34.8 143.12 35.376 144.624 35.376C146.736 35.376 148.16 34.352 148.896 32.304H157.632C156.928 35.44 155.44 37.904 153.168 39.696C150.896 41.488 148.096 42.384 144.768 42.384C142.144 42.384 139.808 41.824 137.76 40.704C135.744 39.584 134.16 37.984 133.008 35.904C131.888 33.824 131.328 31.392 131.328 28.608ZM178.391 42L170.231 30.768V42H162.023V6.48H170.231V26.112L178.343 15.216H188.471L177.335 28.656L188.567 42H178.391Z" fill="black"/>
</g>
<defs>
<clipPath id="clip0_4_5">
<rect width="189.046" height="48" fill="white"/>
</clipPath>
</defs>
</svg>
